# Blender v2.79 (sub 0) OBJ File: ''
# www.blender.org
mtllib clock_hand_seconds.mtl
o clock_hand.002
v -0.005305 0.919968 0.005915
v -0.005305 0.919968 -0.005915
v -0.005305 0.000000 -0.005915
v -0.005305 -0.000000 0.005915
v 0.005305 0.919968 -0.005915
v 0.005305 0.000000 -0.005915
v 0.005305 0.919968 0.005915
v 0.005305 -0.000000 0.005915
v 0.000000 0.000000 -0.005915
v 0.005305 0.459984 -0.005915
v 0.000000 -0.000000 0.005915
v 0.000000 0.919968 0.005915
v 0.005305 0.459984 0.005915
v 0.005305 0.919968 0.000000
v 0.000000 0.919968 -0.005915
v -0.005305 0.919968 0.000000
v 0.005305 0.000000 0.000000
v -0.005305 0.459984 -0.005915
v -0.005305 0.000000 0.000000
v -0.005305 0.459984 0.005915
v 0.000000 0.919968 0.000000
v 0.000000 0.000000 0.000000
v 0.000000 0.459984 0.005915
v 0.005305 0.459984 0.000000
v 0.000000 0.459984 -0.005915
v -0.005305 0.459984 0.000000
v 0.002653 0.000000 -0.005915
v 0.005305 0.229992 -0.005915
v 0.002653 -0.000000 0.005915
v 0.002653 0.919968 0.005915
v 0.005305 0.229992 0.005915
v 0.005305 0.919968 0.002958
v 0.002653 0.919968 -0.005915
v -0.005305 0.919968 -0.002957
v 0.005305 -0.000000 0.002958
v -0.005305 0.229992 -0.005915
v -0.005305 -0.000000 0.002958
v -0.005305 0.229992 0.005915
v -0.002653 0.000000 -0.005915
v 0.005305 0.689976 -0.005915
v -0.002653 -0.000000 0.005915
v -0.002653 0.919968 0.005915
v 0.005305 0.689976 0.005915
v 0.005305 0.919968 -0.002957
v -0.002653 0.919968 -0.005915
v -0.005305 0.919968 0.002958
v 0.005305 0.000000 -0.002958
v -0.005305 0.689976 -0.005915
v -0.005305 0.000000 -0.002958
v -0.005305 0.689976 0.005915
v -0.002653 0.919968 0.000000
v 0.002653 0.919968 0.000000
v 0.000000 0.919968 0.002958
v 0.000000 0.919968 -0.002957
v 0.002653 0.000000 0.000000
v -0.002653 0.000000 0.000000
v 0.000000 -0.000000 0.002958
v 0.000000 0.000000 -0.002958
v 0.000000 0.229992 0.005915
v 0.000000 0.689976 0.005915
v 0.002653 0.459984 0.005915
v -0.002653 0.459984 0.005915
v 0.005305 0.229992 0.000000
v 0.005305 0.689976 0.000000
v 0.005305 0.459984 -0.002957
v 0.005305 0.459984 0.002958
v 0.000000 0.229992 -0.005915
v 0.000000 0.689976 -0.005915
v -0.002653 0.459984 -0.005915
v 0.002653 0.459984 -0.005915
v -0.005305 0.229992 0.000000
v -0.005305 0.689976 0.000000
v -0.005305 0.459984 0.002958
v -0.005305 0.459984 -0.002957
v -0.005305 0.689976 -0.002957
v -0.005305 0.689976 0.002958
v -0.005305 0.229992 0.002958
v 0.002653 0.689976 -0.005915
v -0.002653 0.689976 -0.005915
v -0.002653 0.229992 -0.005915
v 0.005305 0.689976 0.002958
v 0.005305 0.689976 -0.002957
v 0.005305 0.229992 -0.002957
v -0.002653 0.689976 0.005915
v 0.002653 0.689976 0.005915
v 0.002653 0.229992 0.005915
v -0.002653 0.000000 -0.002958
v -0.002653 -0.000000 0.002958
v 0.002653 -0.000000 0.002958
v 0.002653 0.919968 -0.002957
v 0.002653 0.919968 0.002958
v -0.002653 0.919968 0.002958
v -0.002653 0.919968 -0.002957
v 0.002653 0.000000 -0.002958
v -0.002653 0.229992 0.005915
v 0.005305 0.229992 0.002958
v 0.002653 0.229992 -0.005915
v -0.005305 0.229992 -0.002957
vt 0.373087 0.750000
vt 0.426384 0.750000
vt 0.426385 1.000000
vt 0.373087 1.000000
vt 0.569790 0.750000
vt 0.617591 0.750000
vt 0.617592 1.000000
vt 0.569791 1.000000
vt 0.053299 0.250000
vt 0.000001 0.250000
vt 0.000000 0.000000
vt 0.053297 0.000000
vt 0.760995 0.750000
vt 0.808796 0.750000
vt 0.808797 1.000000
vt 0.760996 1.000000
vt 0.856597 0.009644
vt 0.856597 0.012859
vt 0.808797 0.012859
vt 0.808797 0.009644
vt 0.856597 0.022504
vt 0.856597 0.025718
vt 0.808797 0.025718
vt 0.808797 0.022504
vt 0.856597 0.016074
vt 0.856597 0.019289
vt 0.808797 0.019289
vt 0.808797 0.016074
vt 0.952199 0.016074
vt 0.952199 0.019289
vt 0.904398 0.019289
vt 0.904398 0.016074
vt 0.952199 0.022504
vt 0.952199 0.025718
vt 0.904398 0.025718
vt 0.904398 0.022504
vt 0.856597 0.003215
vt 0.856597 0.006430
vt 0.808797 0.006430
vt 0.808797 0.003215
vt 0.952199 0.003215
vt 0.952199 0.006430
vt 0.904398 0.006430
vt 0.904398 0.003215
vt 0.952199 0.009644
vt 0.952199 0.012859
vt 0.904398 0.012859
vt 0.904398 0.009644
vt 0.665394 0.750000
vt 0.713195 0.750000
vt 0.713195 1.000000
vt 0.665394 1.000000
vt 0.665393 0.250000
vt 0.713194 0.250000
vt 0.713194 0.500000
vt 0.665393 0.500000
vt 0.760995 0.250000
vt 0.808796 0.250000
vt 0.808796 0.500000
vt 0.760995 0.500000
vt 0.159893 0.250000
vt 0.106596 0.250000
vt 0.106595 0.000000
vt 0.159892 0.000000
vt 0.159896 0.750000
vt 0.106598 0.750000
vt 0.106597 0.500000
vt 0.159894 0.500000
vt 0.053301 0.750000
vt 0.000004 0.750000
vt 0.000003 0.500000
vt 0.053300 0.500000
vt 0.474188 0.750000
vt 0.521989 0.750000
vt 0.521990 1.000000
vt 0.474189 1.000000
vt 0.474186 0.250000
vt 0.521987 0.250000
vt 0.521988 0.500000
vt 0.474187 0.500000
vt 0.569788 0.250000
vt 0.617589 0.250000
vt 0.617590 0.500000
vt 0.569789 0.500000
vt 0.266492 0.750000
vt 0.319790 0.750000
vt 0.319790 1.000000
vt 0.266493 1.000000
vt 0.266492 0.250000
vt 0.319789 0.250000
vt 0.319789 0.500000
vt 0.266492 0.500000
vt 0.373086 0.250000
vt 0.426383 0.250000
vt 0.426384 0.500000
vt 0.373087 0.500000
vt 0.319789 0.000000
vt 0.373086 0.000000
vt 0.426383 0.000000
vt 0.213194 0.250000
vt 0.213195 0.500000
vt 0.213194 0.000000
vt 0.266491 0.000000
vt 0.213195 0.750000
vt 0.213196 1.000000
vt 0.521986 0.000000
vt 0.569787 0.000000
vt 0.617588 0.000000
vt 0.474185 0.000000
vt 0.106600 1.000000
vt 0.053302 1.000000
vt 0.000005 1.000000
vt 0.213193 0.750000
vt 0.213192 0.500000
vt 0.213194 1.000000
vt 0.159897 1.000000
vt 0.213190 0.250000
vt 0.213189 0.000000
vt 0.713193 0.000000
vt 0.760994 0.000000
vt 0.808795 0.000000
vt 0.617592 0.250000
vt 0.617593 0.500000
vt 0.617592 0.000000
vt 0.665393 0.000000
vt 0.617593 0.750000
vt 0.617593 1.000000
vt 1.000000 0.006430
vt 1.000000 0.009644
vt 1.000000 0.012859
vt 0.952199 0.000000
vt 0.904398 0.000000
vt 1.000000 0.000000
vt 1.000000 0.003215
vt 0.856597 0.000000
vt 0.808797 0.000000
vt 1.000000 0.019289
vt 1.000000 0.022504
vt 1.000000 0.025718
vt 0.952199 0.012859
vt 0.904398 0.012859
vt 1.000000 0.012859
vt 1.000000 0.016074
vt 0.856597 0.012859
vt 0.808797 0.012859
vn -1.0000 -0.0000 0.0000
vn 0.0000 0.0000 -1.0000
vn 1.0000 0.0000 0.0000
vn 0.0000 -0.0000 1.0000
vn 0.0000 -1.0000 -0.0000
vn 0.0000 1.0000 0.0000
usemtl None.002
s 1
f 98/1/1 36/2/1 3/3/1 49/4/1
f 97/5/2 28/6/2 6/7/2 27/8/2
f 96/9/3 31/10/3 8/11/3 35/12/3
f 95/13/4 38/14/4 4/15/4 41/16/4
f 94/17/5 27/18/5 6/19/5 47/20/5
f 93/21/6 45/22/6 2/23/6 34/24/6
f 92/25/6 51/26/6 16/27/6 46/28/6
f 91/29/6 52/30/6 21/31/6 53/32/6
f 90/33/6 33/34/6 15/35/6 54/36/6
f 89/37/5 55/38/5 17/39/5 35/40/5
f 88/41/5 56/42/5 22/43/5 57/44/5
f 87/45/5 39/46/5 9/47/5 58/48/5
f 86/49/4 59/50/4 11/51/4 29/52/4
f 85/53/4 60/54/4 23/55/4 61/56/4
f 84/57/4 50/58/4 20/59/4 62/60/4
f 83/61/3 63/62/3 17/63/3 47/64/3
f 82/65/3 64/66/3 24/67/3 65/68/3
f 81/69/3 43/70/3 13/71/3 66/72/3
f 80/73/2 67/74/2 9/75/2 39/76/2
f 79/77/2 68/78/2 25/79/2 69/80/2
f 78/81/2 40/82/2 10/83/2 70/84/2
f 77/85/1 71/86/1 19/87/1 37/88/1
f 76/89/1 72/90/1 26/91/1 73/92/1
f 75/93/1 48/94/1 18/95/1 74/96/1
f 72/90/1 75/93/1 74/96/1 26/91/1
f 16/97/1 34/98/1 75/93/1 72/90/1
f 34/98/1 2/99/1 48/94/1 75/93/1
f 50/100/1 76/89/1 73/92/1 20/101/1
f 1/102/1 46/103/1 76/89/1 50/100/1
f 46/103/1 16/97/1 72/90/1 76/89/1
f 38/104/1 77/85/1 37/88/1 4/105/1
f 20/101/1 73/92/1 77/85/1 38/104/1
f 73/92/1 26/91/1 71/86/1 77/85/1
f 68/78/2 78/81/2 70/84/2 25/79/2
f 15/106/2 33/107/2 78/81/2 68/78/2
f 33/107/2 5/108/2 40/82/2 78/81/2
f 48/94/2 79/77/2 69/80/2 18/95/2
f 2/99/2 45/109/2 79/77/2 48/94/2
f 45/109/2 15/106/2 68/78/2 79/77/2
f 36/2/2 80/73/2 39/76/2 3/3/2
f 18/95/2 69/80/2 80/73/2 36/2/2
f 69/80/2 25/79/2 67/74/2 80/73/2
f 64/66/3 81/69/3 66/72/3 24/67/3
f 14/110/3 32/111/3 81/69/3 64/66/3
f 32/111/3 7/112/3 43/70/3 81/69/3
f 40/113/3 82/65/3 65/68/3 10/114/3
f 5/115/3 44/116/3 82/65/3 40/113/3
f 44/116/3 14/110/3 64/66/3 82/65/3
f 28/117/3 83/61/3 47/64/3 6/118/3
f 10/114/3 65/68/3 83/61/3 28/117/3
f 65/68/3 24/67/3 63/62/3 83/61/3
f 60/54/4 84/57/4 62/60/4 23/55/4
f 12/119/4 42/120/4 84/57/4 60/54/4
f 42/120/4 1/121/4 50/58/4 84/57/4
f 43/122/4 85/53/4 61/56/4 13/123/4
f 7/124/4 30/125/4 85/53/4 43/122/4
f 30/125/4 12/119/4 60/54/4 85/53/4
f 31/126/4 86/49/4 29/52/4 8/127/4
f 13/123/4 61/56/4 86/49/4 31/126/4
f 61/56/4 23/55/4 59/50/4 86/49/4
f 56/42/5 87/45/5 58/48/5 22/43/5
f 19/128/5 49/129/5 87/45/5 56/42/5
f 49/129/5 3/130/5 39/46/5 87/45/5
f 41/131/5 88/41/5 57/44/5 11/132/5
f 4/133/5 37/134/5 88/41/5 41/131/5
f 37/134/5 19/128/5 56/42/5 88/41/5
f 29/135/5 89/37/5 35/40/5 8/136/5
f 11/132/5 57/44/5 89/37/5 29/135/5
f 57/44/5 22/43/5 55/38/5 89/37/5
f 52/30/6 90/33/6 54/36/6 21/31/6
f 14/137/6 44/138/6 90/33/6 52/30/6
f 44/138/6 5/139/6 33/34/6 90/33/6
f 30/140/6 91/29/6 53/32/6 12/141/6
f 7/142/6 32/143/6 91/29/6 30/140/6
f 32/143/6 14/137/6 52/30/6 91/29/6
f 42/144/6 92/25/6 46/28/6 1/145/6
f 12/141/6 53/32/6 92/25/6 42/144/6
f 53/32/6 21/31/6 51/26/6 92/25/6
f 51/26/6 93/21/6 34/24/6 16/27/6
f 21/31/6 54/36/6 93/21/6 51/26/6
f 54/36/6 15/35/6 45/22/6 93/21/6
f 55/38/5 94/17/5 47/20/5 17/39/5
f 22/43/5 58/48/5 94/17/5 55/38/5
f 58/48/5 9/47/5 27/18/5 94/17/5
f 59/50/4 95/13/4 41/16/4 11/51/4
f 23/55/4 62/60/4 95/13/4 59/50/4
f 62/60/4 20/59/4 38/14/4 95/13/4
f 63/62/3 96/9/3 35/12/3 17/63/3
f 24/67/3 66/72/3 96/9/3 63/62/3
f 66/72/3 13/71/3 31/10/3 96/9/3
f 67/74/2 97/5/2 27/8/2 9/75/2
f 25/79/2 70/84/2 97/5/2 67/74/2
f 70/84/2 10/83/2 28/6/2 97/5/2
f 71/86/1 98/1/1 49/4/1 19/87/1
f 26/91/1 74/96/1 98/1/1 71/86/1
f 74/96/1 18/95/1 36/2/1 98/1/1
